<svg width="873" height="359" xmlns="http://www.w3.org/2000/svg" xmlns:xlink="http://www.w3.org/1999/xlink" overflow="hidden"><g><rect x="0" y="0" width="873" height="359" fill="#FFFFFF"/><path d="M594.5 138.667C594.5 133.052 599.052 128.5 604.667 128.5L728.333 128.5C733.948 128.5 738.5 133.052 738.5 138.667L738.5 179.333C738.5 184.948 733.948 189.5 728.333 189.5L604.667 189.5C599.052 189.5 594.5 184.948 594.5 179.333Z" stroke="#000000" stroke-miterlimit="8" fill="#FFFFFF" fill-rule="evenodd"/><text font-family="Times New Roman,Times New Roman_MSFontService,sans-serif" font-weight="400" font-size="21.3333" transform="translate(627.18 166)">Predictor</text><path d="M1.98427e-06-0.666667 4-0.666655 4 0.666679-1.98427e-06 0.666667ZM5.33334-0.666651 9.33333-0.666639 9.33333 0.666694 5.33333 0.666683ZM10.6667-0.666635 14.6667-0.666623 14.6667 0.66671 10.6667 0.666698ZM16-0.666619 20-0.666607 20 0.666726 16 0.666714ZM21.3333-0.666603 25.3333-0.666591 25.3333 0.666742 21.3333 0.66673ZM26.6667-0.666587 28.6064-0.666582 28.6064 0.666752 26.6667 0.666746ZM27.2731-3.99992 35.2731 0.000104987 27.2731 4.00008Z" fill="#FF0000" transform="matrix(-1 0 0 1 586.773 158.5)"/><path d="M2.28081e-06-0.666667 4-0.666653 4 0.66668-2.28081e-06 0.666667ZM5.33334-0.666648 9.33334-0.666635 9.33333 0.666699 5.33333 0.666685ZM10.6667-0.66663 14.6667-0.666616 14.6667 0.666717 10.6667 0.666703ZM16-0.666612 20-0.666598 20 0.666735 16 0.666721ZM21.3333-0.666594 24.0204-0.666584 24.0204 0.666749 21.3333 0.66674ZM22.687-3.99992 30.687 0.000104987 22.687 4.00008Z" fill="#FF0000" transform="matrix(-1 0 0 1 775.187 158.5)"/><path d="M570.5 167.5 570.5 221.258" stroke="#000000" stroke-miterlimit="8" fill="none" fill-rule="evenodd"/><path d="M759.5 167.5 759.5 221.258" stroke="#000000" stroke-miterlimit="8" fill="none" fill-rule="evenodd"/><path d="M0 0 189.061 0.000104987" stroke="#000000" stroke-miterlimit="8" fill="none" fill-rule="evenodd" transform="matrix(1 0 0 -1 570.5 221.5)"/><path d="M663.5 221.5 663.5 238.753" stroke="#000000" stroke-miterlimit="8" fill="none" fill-rule="evenodd"/><text font-family="Times New Roman,Times New Roman_MSFontService,sans-serif" font-weight="400" font-size="21.3333" transform="translate(593.132 256)">Backpropagation</text><rect x="501.5" y="34.5001" width="43" height="252" stroke="#000000" stroke-width="1.33333" stroke-miterlimit="8" fill="#F2CFEE"/><path d="M501.5 55.5001 544.691 55.5002" stroke="#000000" stroke-width="0.333333" stroke-miterlimit="8" stroke-dasharray="1.33333 1" fill="none" fill-rule="evenodd"/><path d="M501.5 76.5001 544.691 76.5002" stroke="#000000" stroke-width="0.333333" stroke-miterlimit="8" stroke-dasharray="1.33333 1" fill="none" fill-rule="evenodd"/><path d="M501.5 97.5001 544.691 97.5002" stroke="#000000" stroke-width="0.333333" stroke-miterlimit="8" stroke-dasharray="1.33333 1" fill="none" fill-rule="evenodd"/><path d="M501.5 118.5 544.691 118.5" stroke="#000000" stroke-width="0.333333" stroke-miterlimit="8" stroke-dasharray="1.33333 1" fill="none" fill-rule="evenodd"/><path d="M501.5 139.5 544.691 139.5" stroke="#000000" stroke-width="0.333333" stroke-miterlimit="8" stroke-dasharray="1.33333 1" fill="none" fill-rule="evenodd"/><path d="M501.5 159.5 544.691 159.5" stroke="#000000" stroke-width="0.333333" stroke-miterlimit="8" stroke-dasharray="1.33333 1" fill="none" fill-rule="evenodd"/><path d="M501.5 180.5 544.691 180.5" stroke="#000000" stroke-width="0.333333" stroke-miterlimit="8" stroke-dasharray="1.33333 1" fill="none" fill-rule="evenodd"/><path d="M501.5 201.5 544.691 201.5" stroke="#000000" stroke-width="0.333333" stroke-miterlimit="8" stroke-dasharray="1.33333 1" fill="none" fill-rule="evenodd"/><path d="M501.5 223.5 544.691 223.5" stroke="#000000" stroke-width="0.333333" stroke-miterlimit="8" stroke-dasharray="1.33333 1" fill="none" fill-rule="evenodd"/><path d="M501.5 244.5 544.691 244.5" stroke="#000000" stroke-width="0.333333" stroke-miterlimit="8" stroke-dasharray="1.33333 1" fill="none" fill-rule="evenodd"/><path d="M501.5 265.5 544.691 265.5" stroke="#000000" stroke-width="0.333333" stroke-miterlimit="8" stroke-dasharray="1.33333 1" fill="none" fill-rule="evenodd"/><path d="M0.0068745-0.666631 4.00666-0.625384 3.99291 0.707878-0.0068745 0.666631ZM5.33992-0.611635 9.33971-0.570388 9.32596 0.762874 5.32618 0.721627ZM10.673-0.556639 14.6728-0.515392 14.659 0.81787 10.6592 0.776623ZM16.006-0.501643 20.0058-0.460396 19.9921 0.872866 15.9923 0.831619ZM21.3391-0.446647 25.3389-0.4054 25.3251 0.927862 21.3253 0.886615ZM26.6721-0.391651 30.6719-0.350404 30.6582 0.982858 26.6584 0.941611ZM32.0052-0.336655 36.005-0.295408 35.9912 1.03785 31.9914 0.996607ZM37.3382-0.281659 41.338-0.240412 41.3243 1.09285 37.3245 1.0516ZM42.6713-0.226663 46.6711-0.185416 46.6573 1.14785 42.6575 1.1066ZM48.0043-0.171667 52.0041-0.13042 51.9904 1.20284 47.9906 1.1616ZM53.3374-0.116671 55.9725-0.089497 55.9587 1.24377 53.3236 1.21659ZM54.6736-3.4364 62.6319 0.645879 54.5911 4.56317Z" fill="#FF0000" transform="matrix(-1 0 0 1 476.132 159.5)"/><path d="M482.5 212.5 494.82 212.5" stroke="#FF0000" stroke-miterlimit="8" fill="none" fill-rule="evenodd"/><path d="M481.5 275.5 493.82 275.5" stroke="#FF0000" stroke-miterlimit="8" fill="none" fill-rule="evenodd"/><path d="M0 0 0.000104987 62.3885" stroke="#FF0000" stroke-miterlimit="8" fill="none" fill-rule="evenodd" transform="matrix(1 0 0 -1 482.5 274.889)"/><path d="M476.402 78.6053 472.417 78.2609 472.532 76.9325 476.517 77.2769ZM471.089 78.1461 467.104 77.8017 467.219 76.4733 471.204 76.8177ZM465.775 77.6869 461.79 77.3425 461.905 76.0141 465.89 76.3585ZM460.462 77.2277 456.477 76.8833 456.592 75.5549 460.577 75.8993ZM455.148 76.7685 451.163 76.4241 451.278 75.0957 455.263 75.4401ZM449.835 76.3093 445.85 75.9649 445.964 74.6365 449.95 74.9809ZM444.521 75.8501 440.536 75.5057 440.651 74.1773 444.636 74.5217ZM439.208 75.3909 435.223 75.0465 435.337 73.7181 439.323 74.0625ZM433.894 74.9317 429.909 74.5873 430.024 73.2589 434.009 73.6033ZM428.581 74.4725 424.596 74.1281 424.71 72.7997 428.695 73.1441ZM423.267 74.0133 420.085 73.7382 420.199 72.4099 423.382 72.6849ZM421.126 77.174 413.5 72.5001 421.815 69.2037Z" fill="#FF0000"/><path d="M0.0988488-0.659298 4.05463-0.0662045 3.85694 1.25239-0.0988488 0.659298ZM5.37323 0.131493 9.32901 0.724586 9.13132 2.04318 5.17553 1.45009ZM10.6476 0.922284 14.6034 1.51538 14.4057 2.83397 10.4499 2.24088ZM15.922 1.71307 19.8778 2.30617 19.6801 3.62476 15.7243 3.03167ZM21.1964 2.50387 25.1522 3.09696 24.9545 4.41555 20.9987 3.82246ZM26.4708 3.29466 30.4265 3.88775 30.2288 5.20634 26.2731 4.61325ZM31.7451 4.08545 35.7009 4.67854 35.5032 5.99713 31.5474 5.40404ZM37.0195 4.87624 40.9753 5.46933 40.7776 6.78793 36.8218 6.19483ZM42.2939 5.66703 46.2497 6.26012 46.052 7.57872 42.0962 6.98562ZM47.5683 6.45782 51.5241 7.05091 51.3264 8.36951 47.3706 7.77641ZM52.8427 7.24861 53.444 7.33877 53.2463 8.65737 52.645 8.5672ZM52.6197 3.84459 59.9382 8.98656 51.4335 11.7562Z" fill="#FF0000" transform="matrix(-1 0 0 1 475.438 242.5)"/><path d="M1.34352e-06-0.666667 4-0.666659 4 0.666675-1.34352e-06 0.666667ZM5.33333-0.666656 9.33333-0.666648 9.33333 0.666685 5.33333 0.666677ZM10.6667-0.666645 14.6667-0.666637 14.6667 0.666696 10.6667 0.666688ZM16-0.666634 20-0.666626 20 0.666707 16 0.666699ZM21.3333-0.666624 25.3333-0.666616 25.3333 0.666718 21.3333 0.66671ZM26.6667-0.666613 30.6667-0.666605 30.6667 0.666728 26.6667 0.66672ZM32-0.666602 36-0.666594 36 0.666739 32 0.666731ZM37.3333-0.666591 41.3333-0.666583 41.3333 0.66675 37.3333 0.666742ZM42.6667-0.666581 45.4289-0.666575 45.4289 0.666758 42.6667 0.666753ZM44.0955-3.99991 52.0955 0.000104987 44.0955 4.00009Z" fill="#FF0000" transform="matrix(-1 0 0 1 251.596 161.5)"/><path d="M1.34352e-06-0.666667 4-0.666659 4 0.666675-1.34352e-06 0.666667ZM5.33333-0.666656 9.33333-0.666648 9.33333 0.666685 5.33333 0.666677ZM10.6667-0.666645 14.6667-0.666637 14.6667 0.666696 10.6667 0.666688ZM16-0.666634 20-0.666626 20 0.666707 16 0.666699ZM21.3333-0.666624 25.3333-0.666616 25.3333 0.666718 21.3333 0.66671ZM26.6667-0.666613 30.6667-0.666605 30.6667 0.666728 26.6667 0.66672ZM32-0.666602 36-0.666594 36 0.666739 32 0.666731ZM37.3333-0.666591 41.3333-0.666583 41.3333 0.66675 37.3333 0.666742ZM42.6667-0.666581 45.4289-0.666575 45.4289 0.666758 42.6667 0.666753ZM44.0955-3.99991 52.0955 0.000104987 44.0955 4.00009Z" fill="#FF0000" transform="matrix(-1 0 0 1 251.596 70.5001)"/><path d="M1.34352e-06-0.666667 4-0.666659 4 0.666675-1.34352e-06 0.666667ZM5.33333-0.666656 9.33333-0.666648 9.33333 0.666685 5.33333 0.666677ZM10.6667-0.666645 14.6667-0.666637 14.6667 0.666696 10.6667 0.666688ZM16-0.666634 20-0.666626 20 0.666707 16 0.666699ZM21.3333-0.666624 25.3333-0.666616 25.3333 0.666718 21.3333 0.66671ZM26.6667-0.666613 30.6667-0.666605 30.6667 0.666728 26.6667 0.66672ZM32-0.666602 36-0.666594 36 0.666739 32 0.666731ZM37.3333-0.666591 41.3333-0.666583 41.3333 0.66675 37.3333 0.666742ZM42.6667-0.666581 45.4289-0.666575 45.4289 0.666758 42.6667 0.666753ZM44.0955-3.99991 52.0955 0.000104987 44.0955 4.00009Z" fill="#FF0000" transform="matrix(-1 0 0 1 251.596 251.5)"/><path d="M1.34352e-06-0.666667 4-0.666659 4 0.666675-1.34352e-06 0.666667ZM5.33333-0.666656 9.33333-0.666648 9.33333 0.666685 5.33333 0.666677ZM10.6667-0.666645 14.6667-0.666637 14.6667 0.666696 10.6667 0.666688ZM16-0.666634 20-0.666626 20 0.666707 16 0.666699ZM21.3333-0.666624 25.3333-0.666616 25.3333 0.666718 21.3333 0.66671ZM26.6667-0.666613 30.6667-0.666605 30.6667 0.666728 26.6667 0.66672ZM32-0.666602 36-0.666594 36 0.666739 32 0.666731ZM37.3333-0.666591 41.3333-0.666583 41.3333 0.66675 37.3333 0.666742ZM42.6667-0.666581 45.4289-0.666575 45.4289 0.666758 42.6667 0.666753ZM44.0955-3.99991 52.0955 0.000104987 44.0955 4.00009Z" fill="#FF0000" transform="matrix(-1 0 0 1 356.596 70.5001)"/><path d="M1.34352e-06-0.666667 4-0.666659 4 0.666675-1.34352e-06 0.666667ZM5.33333-0.666656 9.33333-0.666648 9.33333 0.666685 5.33333 0.666677ZM10.6667-0.666645 14.6667-0.666637 14.6667 0.666696 10.6667 0.666688ZM16-0.666634 20-0.666626 20 0.666707 16 0.666699ZM21.3333-0.666624 25.3333-0.666616 25.3333 0.666718 21.3333 0.66671ZM26.6667-0.666613 30.6667-0.666605 30.6667 0.666728 26.6667 0.66672ZM32-0.666602 36-0.666594 36 0.666739 32 0.666731ZM37.3333-0.666591 41.3333-0.666583 41.3333 0.66675 37.3333 0.666742ZM42.6667-0.666581 45.4289-0.666575 45.4289 0.666758 42.6667 0.666753ZM44.0955-3.99991 52.0955 0.000104987 44.0955 4.00009Z" fill="#FF0000" transform="matrix(-1 0 0 1 357.596 160.5)"/><path d="M1.34352e-06-0.666667 4-0.666659 4 0.666675-1.34352e-06 0.666667ZM5.33333-0.666656 9.33333-0.666648 9.33333 0.666685 5.33333 0.666677ZM10.6667-0.666645 14.6667-0.666637 14.6667 0.666696 10.6667 0.666688ZM16-0.666634 20-0.666626 20 0.666707 16 0.666699ZM21.3333-0.666624 25.3333-0.666616 25.3333 0.666718 21.3333 0.66671ZM26.6667-0.666613 30.6667-0.666605 30.6667 0.666728 26.6667 0.66672ZM32-0.666602 36-0.666594 36 0.666739 32 0.666731ZM37.3333-0.666591 41.3333-0.666583 41.3333 0.66675 37.3333 0.666742ZM42.6667-0.666581 45.4289-0.666575 45.4289 0.666758 42.6667 0.666753ZM44.0955-3.99991 52.0955 0.000104987 44.0955 4.00009Z" fill="#FF0000" transform="matrix(-1 0 0 1 357.596 251.5)"/><path d="M445.5 257.5 445.5 313.665" stroke="#000000" stroke-miterlimit="8" fill="none" fill-rule="evenodd"/><text font-family="Times New Roman,Times New Roman_MSFontService,sans-serif" font-weight="400" font-size="21.3333" transform="translate(407.629 342)">Reshape</text><path d="M335.5 260.5 335.5 290.179" stroke="#000000" stroke-miterlimit="8" fill="none" fill-rule="evenodd"/><text font-family="Times New Roman,Times New Roman_MSFontService,sans-serif" font-weight="400" font-size="21.3333" transform="translate(300.565 316)">Euclidean</text><text font-family="Times New Roman,Times New Roman_MSFontService,sans-serif" font-weight="400" font-size="21.3333" transform="translate(300.565 341)">Norms</text><path d="M230.5 263.5 230.5 286.184" stroke="#000000" stroke-miterlimit="8" fill="none" fill-rule="evenodd"/><text font-family="Times New Roman,Times New Roman_MSFontService,sans-serif" font-weight="400" font-size="21.3333" transform="translate(186.076 305)">Normalize</text><rect x="362.5" y="29.5001" width="43" height="82" stroke="#000000" stroke-width="1.33333" stroke-miterlimit="8" fill="#F2CFEE"/><path d="M362.5 50.5001 405.691 50.5002" stroke="#000000" stroke-width="0.333333" stroke-miterlimit="8" stroke-dasharray="1.33333 1" fill="none" fill-rule="evenodd"/><path d="M362.5 71.5001 405.691 71.5002" stroke="#000000" stroke-width="0.333333" stroke-miterlimit="8" stroke-dasharray="1.33333 1" fill="none" fill-rule="evenodd"/><path d="M362.5 91.5001 405.691 91.5002" stroke="#000000" stroke-width="0.333333" stroke-miterlimit="8" stroke-dasharray="1.33333 1" fill="none" fill-rule="evenodd"/><rect x="362.5" y="119.5" width="44" height="82" stroke="#000000" stroke-width="1.33333" stroke-miterlimit="8" fill="#F2CFEE"/><path d="M362.5 140.5 405.691 140.5" stroke="#000000" stroke-width="0.333333" stroke-miterlimit="8" stroke-dasharray="1.33333 1" fill="none" fill-rule="evenodd"/><path d="M362.5 161.5 405.691 161.5" stroke="#000000" stroke-width="0.333333" stroke-miterlimit="8" stroke-dasharray="1.33333 1" fill="none" fill-rule="evenodd"/><path d="M362.5 181.5 405.691 181.5" stroke="#000000" stroke-width="0.333333" stroke-miterlimit="8" stroke-dasharray="1.33333 1" fill="none" fill-rule="evenodd"/><rect x="362.5" y="209.5" width="44" height="82" stroke="#000000" stroke-width="1.33333" stroke-miterlimit="8" fill="#F2CFEE"/><path d="M362.5 230.5 405.691 230.5" stroke="#000000" stroke-width="0.333333" stroke-miterlimit="8" stroke-dasharray="1.33333 1" fill="none" fill-rule="evenodd"/><path d="M362.5 251.5 405.691 251.5" stroke="#000000" stroke-width="0.333333" stroke-miterlimit="8" stroke-dasharray="1.33333 1" fill="none" fill-rule="evenodd"/><path d="M362.5 271.5 405.691 271.5" stroke="#000000" stroke-width="0.333333" stroke-miterlimit="8" stroke-dasharray="1.33333 1" fill="none" fill-rule="evenodd"/><rect x="258.5" y="60.5001" width="43" height="20" stroke="#000000" stroke-width="1.33333" stroke-miterlimit="8" fill="#F2CFEE"/><rect x="258.5" y="148.5" width="43" height="21" stroke="#000000" stroke-width="1.33333" stroke-miterlimit="8" fill="#F2CFEE"/><rect x="258.5" y="241.5" width="43" height="21" stroke="#000000" stroke-width="1.33333" stroke-miterlimit="8" fill="#F2CFEE"/><path d="M482.5 127.5 494.82 127.5" stroke="#FF0000" stroke-miterlimit="8" fill="none" fill-rule="evenodd"/><path d="M481.5 190.5 493.82 190.5" stroke="#FF0000" stroke-miterlimit="8" fill="none" fill-rule="evenodd"/><path d="M0 0 0.000104987 62.3885" stroke="#FF0000" stroke-miterlimit="8" fill="none" fill-rule="evenodd" transform="matrix(1 0 0 -1 482.5 189.889)"/><path d="M482.5 44.5001 494.82 44.5002" stroke="#FF0000" stroke-miterlimit="8" fill="none" fill-rule="evenodd"/><path d="M482.5 107.5 494.82 107.5" stroke="#FF0000" stroke-miterlimit="8" fill="none" fill-rule="evenodd"/><path d="M0 0 0.000104987 62.3885" stroke="#FF0000" stroke-miterlimit="8" fill="none" fill-rule="evenodd" transform="matrix(1 0 0 -1 482.5 106.889)"/><rect x="4" y="6" width="123" height="39" stroke="#000000" stroke-width="2" stroke-miterlimit="8" fill="#FFFFFF"/><text font-family="Times New Roman,Times New Roman_MSFontService,sans-serif" font-weight="400" font-size="21.3333" transform="translate(15.3694 33)">Acquisition</text><text font-family="Cambria Math,Cambria Math_MSFontService,sans-serif" font-weight="400" font-size="24" transform="translate(24.4399 78)">ğ‘Ÿ</text><text font-family="Cambria Math,Cambria Math_MSFontService,sans-serif" font-weight="400" font-size="24" transform="translate(36.2999 78)">(</text><text font-family="Cambria Math,Cambria Math_MSFontService,sans-serif" font-weight="400" font-size="24" transform="translate(46.2999 78)">ğ‘</text><text font-family="Cambria Math,Cambria Math_MSFontService,sans-serif" font-weight="400" font-size="24" transform="translate(58.0599 78)">,</text><text font-family="Cambria Math,Cambria Math_MSFontService,sans-serif" font-weight="400" font-size="24" transform="translate(67.0599 78)">ğ’›</text><text font-family="Cambria Math,Cambria Math_MSFontService,sans-serif" font-weight="400" font-size="24" transform="translate(79.3932 78)">,</text><text font-family="Cambria Math,Cambria Math_MSFontService,sans-serif" font-weight="400" font-size="24" transform="translate(88.3932 78)">1</text><text font-family="Cambria Math,Cambria Math_MSFontService,sans-serif" font-weight="400" font-size="24" transform="translate(101.727 78)">)</text><text font-family="Cambria Math,Cambria Math_MSFontService,sans-serif" font-weight="400" font-size="24" transform="translate(118.393 78)">=</text><text font-family="Cambria Math,Cambria Math_MSFontService,sans-serif" font-weight="400" font-size="24" transform="translate(143.06 78)">0</text><text font-family="Cambria Math,Cambria Math_MSFontService,sans-serif" font-weight="400" font-size="24" transform="translate(156.393 78)">.</text><text font-family="Cambria Math,Cambria Math_MSFontService,sans-serif" font-weight="400" font-size="24" transform="translate(161.393 78)">49</text><text font-family="Cambria Math,Cambria Math_MSFontService,sans-serif" font-weight="400" font-size="24" transform="translate(26.7188 168)">ğ‘Ÿ</text><text font-family="Cambria Math,Cambria Math_MSFontService,sans-serif" font-weight="400" font-size="24" transform="translate(38.5788 168)">(</text><text font-family="Cambria Math,Cambria Math_MSFontService,sans-serif" font-weight="400" font-size="24" transform="translate(48.5788 168)">ğ‘</text><text font-family="Cambria Math,Cambria Math_MSFontService,sans-serif" font-weight="400" font-size="24" transform="translate(60.3388 168)">,</text><text font-family="Cambria Math,Cambria Math_MSFontService,sans-serif" font-weight="400" font-size="24" transform="translate(69.3388 168)">ğ’›</text><text font-family="Cambria Math,Cambria Math_MSFontService,sans-serif" font-weight="400" font-size="24" transform="translate(81.6722 168)">,</text><text font-family="Cambria Math,Cambria Math_MSFontService,sans-serif" font-weight="400" font-size="24" transform="translate(90.6722 168)">2</text><text font-family="Cambria Math,Cambria Math_MSFontService,sans-serif" font-weight="400" font-size="24" transform="translate(104.006 168)">)</text><text font-family="Cambria Math,Cambria Math_MSFontService,sans-serif" font-weight="400" font-size="24" transform="translate(120.672 168)">=</text><text font-family="Cambria Math,Cambria Math_MSFontService,sans-serif" font-weight="400" font-size="24" transform="translate(145.339 168)">0</text><text font-family="Cambria Math,Cambria Math_MSFontService,sans-serif" font-weight="400" font-size="24" transform="translate(158.672 168)">.</text><text font-family="Cambria Math,Cambria Math_MSFontService,sans-serif" font-weight="400" font-size="24" transform="translate(163.672 168)">30</text><text font-family="Cambria Math,Cambria Math_MSFontService,sans-serif" font-weight="400" font-size="24" transform="translate(24.8236 257)">ğ‘Ÿ</text><text font-family="Cambria Math,Cambria Math_MSFontService,sans-serif" font-weight="400" font-size="24" transform="translate(36.6836 257)">(</text><text font-family="Cambria Math,Cambria Math_MSFontService,sans-serif" font-weight="400" font-size="24" transform="translate(46.6836 257)">ğ‘</text><text font-family="Cambria Math,Cambria Math_MSFontService,sans-serif" font-weight="400" font-size="24" transform="translate(58.4436 257)">,</text><text font-family="Cambria Math,Cambria Math_MSFontService,sans-serif" font-weight="400" font-size="24" transform="translate(67.4436 257)">ğ’›</text><text font-family="Cambria Math,Cambria Math_MSFontService,sans-serif" font-weight="400" font-size="24" transform="translate(79.777 257)">,</text><text font-family="Cambria Math,Cambria Math_MSFontService,sans-serif" font-weight="400" font-size="24" transform="translate(88.777 257)">3</text><text font-family="Cambria Math,Cambria Math_MSFontService,sans-serif" font-weight="400" font-size="24" transform="translate(102.11 257)">)</text><text font-family="Cambria Math,Cambria Math_MSFontService,sans-serif" font-weight="400" font-size="24" transform="translate(118.777 257)">=</text><text font-family="Cambria Math,Cambria Math_MSFontService,sans-serif" font-weight="400" font-size="24" transform="translate(143.444 257)">0</text><text font-family="Cambria Math,Cambria Math_MSFontService,sans-serif" font-weight="400" font-size="24" transform="translate(156.777 257)">.</text><text font-family="Cambria Math,Cambria Math_MSFontService,sans-serif" font-weight="400" font-size="24" transform="translate(161.777 257)">21</text><text font-family="Cambria Math,Cambria Math_MSFontService,sans-serif" font-weight="400" font-size="16" transform="translate(368.618 46)">-</text><text font-family="Cambria Math,Cambria Math_MSFontService,sans-serif" font-weight="400" font-size="16" transform="translate(373.951 46)">1.6</text><text font-family="Cambria Math,Cambria Math_MSFontService,sans-serif" font-weight="400" font-size="16" transform="translate(368.006 67)">-</text><text font-family="Cambria Math,Cambria Math_MSFontService,sans-serif" font-weight="400" font-size="16" transform="translate(373.339 67)">0.9</text><text font-family="Cambria Math,Cambria Math_MSFontService,sans-serif" font-weight="400" font-size="16" transform="translate(368.618 86)">-</text><text font-family="Cambria Math,Cambria Math_MSFontService,sans-serif" font-weight="400" font-size="16" transform="translate(373.951 86)">1.0</text><text font-family="Cambria Math,Cambria Math_MSFontService,sans-serif" font-weight="400" font-size="16" transform="translate(373.94 106)">2.3</text><text font-family="Cambria Math,Cambria Math_MSFontService,sans-serif" font-weight="400" font-size="16" transform="translate(369.497 137)">-</text><text font-family="Cambria Math,Cambria Math_MSFontService,sans-serif" font-weight="400" font-size="16" transform="translate(374.83 137)">1.4</text><text font-family="Cambria Math,Cambria Math_MSFontService,sans-serif" font-weight="400" font-size="16" transform="translate(374.41 158)">1.1</text><text font-family="Cambria Math,Cambria Math_MSFontService,sans-serif" font-weight="400" font-size="16" transform="translate(374.291 177)">0.4</text><text font-family="Cambria Math,Cambria Math_MSFontService,sans-serif" font-weight="400" font-size="16" transform="translate(368.927 197)">-</text><text font-family="Cambria Math,Cambria Math_MSFontService,sans-serif" font-weight="400" font-size="16" transform="translate(374.26 197)">0.5</text><text font-family="Cambria Math,Cambria Math_MSFontService,sans-serif" font-weight="400" font-size="16" transform="translate(369.327 227)">-</text><text font-family="Cambria Math,Cambria Math_MSFontService,sans-serif" font-weight="400" font-size="16" transform="translate(374.66 227)">0.8</text><text font-family="Cambria Math,Cambria Math_MSFontService,sans-serif" font-weight="400" font-size="16" transform="translate(368.998 247)">-</text><text font-family="Cambria Math,Cambria Math_MSFontService,sans-serif" font-weight="400" font-size="16" transform="translate(374.331 247)">0.4</text><text font-family="Cambria Math,Cambria Math_MSFontService,sans-serif" font-weight="400" font-size="16" transform="translate(369.327 267)">-</text><text font-family="Cambria Math,Cambria Math_MSFontService,sans-serif" font-weight="400" font-size="16" transform="translate(374.66 267)">0.4</text><text font-family="Cambria Math,Cambria Math_MSFontService,sans-serif" font-weight="400" font-size="16" transform="translate(369.327 286)">-</text><text font-family="Cambria Math,Cambria Math_MSFontService,sans-serif" font-weight="400" font-size="16" transform="translate(374.66 286)">0.9</text><text font-family="Cambria Math,Cambria Math_MSFontService,sans-serif" font-weight="400" font-size="16" transform="translate(507.833 221)">-</text><text font-family="Cambria Math,Cambria Math_MSFontService,sans-serif" font-weight="400" font-size="16" transform="translate(513.166 221)">0.8</text><text font-family="Cambria Math,Cambria Math_MSFontService,sans-serif" font-weight="400" font-size="16" transform="translate(507.504 241)">-</text><text font-family="Cambria Math,Cambria Math_MSFontService,sans-serif" font-weight="400" font-size="16" transform="translate(512.837 241)">0.4</text><text font-family="Cambria Math,Cambria Math_MSFontService,sans-serif" font-weight="400" font-size="16" transform="translate(507.833 261)">-</text><text font-family="Cambria Math,Cambria Math_MSFontService,sans-serif" font-weight="400" font-size="16" transform="translate(513.166 261)">0.4</text><text font-family="Cambria Math,Cambria Math_MSFontService,sans-serif" font-weight="400" font-size="16" transform="translate(507.833 280)">-</text><text font-family="Cambria Math,Cambria Math_MSFontService,sans-serif" font-weight="400" font-size="16" transform="translate(513.166 280)">0.9</text><text font-family="Cambria Math,Cambria Math_MSFontService,sans-serif" font-weight="400" font-size="16" transform="translate(507.955 136)">-</text><text font-family="Cambria Math,Cambria Math_MSFontService,sans-serif" font-weight="400" font-size="16" transform="translate(513.288 136)">1.4</text><text font-family="Cambria Math,Cambria Math_MSFontService,sans-serif" font-weight="400" font-size="16" transform="translate(512.868 157)">1.1</text><text font-family="Cambria Math,Cambria Math_MSFontService,sans-serif" font-weight="400" font-size="16" transform="translate(512.749 177)">0.4</text><text font-family="Cambria Math,Cambria Math_MSFontService,sans-serif" font-weight="400" font-size="16" transform="translate(507.385 197)">-</text><text font-family="Cambria Math,Cambria Math_MSFontService,sans-serif" font-weight="400" font-size="16" transform="translate(512.718 197)">0.5</text><text font-family="Cambria Math,Cambria Math_MSFontService,sans-serif" font-weight="400" font-size="16" transform="translate(506.858 53)">-</text><text font-family="Cambria Math,Cambria Math_MSFontService,sans-serif" font-weight="400" font-size="16" transform="translate(512.191 53)">1.6</text><text font-family="Cambria Math,Cambria Math_MSFontService,sans-serif" font-weight="400" font-size="16" transform="translate(506.246 74)">-</text><text font-family="Cambria Math,Cambria Math_MSFontService,sans-serif" font-weight="400" font-size="16" transform="translate(511.58 74)">0.9</text><text font-family="Cambria Math,Cambria Math_MSFontService,sans-serif" font-weight="400" font-size="16" transform="translate(506.858 93)">-</text><text font-family="Cambria Math,Cambria Math_MSFontService,sans-serif" font-weight="400" font-size="16" transform="translate(512.191 93)">1.0</text><text font-family="Cambria Math,Cambria Math_MSFontService,sans-serif" font-weight="400" font-size="16" transform="translate(512.18 113)">2.3</text><text font-family="Cambria Math,Cambria Math_MSFontService,sans-serif" font-weight="400" font-size="21.3333" transform="translate(460.951 310)">âˆ‡</text><text font-family="Cambria Math,Cambria Math_MSFontService,sans-serif" font-weight="400" font-size="15.5733" transform="translate(473.618 315)">ğ’›</text><text font-family="Cambria Math,Cambria Math_MSFontService,sans-serif" font-weight="400" font-size="21.3333" transform="translate(482.505 310)">ğ‘</text><text font-family="Cambria Math,Cambria Math_MSFontService,sans-serif" font-weight="400" font-size="15.5733" transform="translate(493.658 315)">ğœ™</text><text font-family="Cambria Math,Cambria Math_MSFontService,sans-serif" font-weight="400" font-size="21.3333" transform="translate(506.711 310)">(</text><text font-family="Cambria Math,Cambria Math_MSFontService,sans-serif" font-weight="400" font-size="21.3333" transform="translate(515.544 310)">ğ‘Œ</text><text font-family="Cambria Math,Cambria Math_MSFontService,sans-serif" font-weight="400" font-size="21.3333" transform="translate(534.825 310)">=</text><text font-family="Cambria Math,Cambria Math_MSFontService,sans-serif" font-weight="400" font-size="21.3333" transform="translate(556.751 310)">ğ‘</text><text font-family="Cambria Math,Cambria Math_MSFontService,sans-serif" font-weight="400" font-size="21.3333" transform="translate(567.265 310)">|</text><text font-family="Cambria Math,Cambria Math_MSFontService,sans-serif" font-weight="400" font-size="21.3333" transform="translate(574.098 310)">ğ’›</text><text font-family="Cambria Math,Cambria Math_MSFontService,sans-serif" font-weight="400" font-size="21.3333" transform="translate(585.098 310)">)</text><text font-family="Cambria Math,Cambria Math_MSFontService,sans-serif" font-weight="400" font-size="16" transform="translate(264.101 77)">3.11</text><text font-family="Cambria Math,Cambria Math_MSFontService,sans-serif" font-weight="400" font-size="16" transform="translate(263.978 165)">1.89</text><text font-family="Cambria Math,Cambria Math_MSFontService,sans-serif" font-weight="400" font-size="16" transform="translate(263.978 257)">1.33</text><rect x="780.5" y="146.5" width="88" height="26" stroke="#000000" stroke-miterlimit="8" fill="#FFFFFF"/><text font-family="Cambria Math,Cambria Math_MSFontService,sans-serif" font-weight="400" font-size="16" transform="translate(783.767 164)">ğ‘</text><text font-family="Cambria Math,Cambria Math_MSFontService,sans-serif" font-weight="400" font-size="11.68" transform="translate(792.26 167)">ğœ™</text><text font-family="Cambria Math,Cambria Math_MSFontService,sans-serif" font-weight="400" font-size="16" transform="translate(802.181 164)">(</text><text font-family="Cambria Math,Cambria Math_MSFontService,sans-serif" font-weight="400" font-size="16" transform="translate(808.847 164)">ğ‘Œ</text><text font-family="Cambria Math,Cambria Math_MSFontService,sans-serif" font-weight="400" font-size="16" transform="translate(823.354 164)">=</text><text font-family="Cambria Math,Cambria Math_MSFontService,sans-serif" font-weight="400" font-size="16" transform="translate(839.801 164)">ğ‘</text><text font-family="Cambria Math,Cambria Math_MSFontService,sans-serif" font-weight="400" font-size="16" transform="translate(847.641 164)">|</text><text font-family="Cambria Math,Cambria Math_MSFontService,sans-serif" font-weight="400" font-size="16" transform="translate(852.641 164)">ğ’›</text><text font-family="Cambria Math,Cambria Math_MSFontService,sans-serif" font-weight="400" font-size="16" transform="translate(860.974 164)">)</text></g></svg>